<svg aria-hidden="true" style="position: absolute; width: 0; height: 0; overflow: hidden;" version="1.1" xmlns="http://www.w3.org/2000/svg" xmlns:xlink="http://www.w3.org/1999/xlink">
<defs>
<symbol id="icon-hand-scissors-o" viewBox="0 0 28 28">
<title>hand-scissors-o</title>
<path d="M16.766 26h-2.766c-1.625 0-2.859-0.703-3.531-2.203-0.234-0.5-0.359-1.047-0.359-1.594v-0.078c-1.281-0.625-2.109-1.937-2.109-3.375 0-0.172 0-0.594 0.078-0.75h-4.078c-2.203 0-4-1.797-4-4s1.797-4 4-4h1.766l-0.688-0.266c-1.547-0.578-2.578-2.078-2.578-3.734 0-2.203 1.797-4 4-4 0.484 0 0.969 0.094 1.422 0.266l9.812 3.734h6.266c2.203 0 4 1.797 4 4v10.437c0 1.844-1.25 3.437-3.031 3.875l-5.297 1.328c-0.938 0.234-1.922 0.359-2.906 0.359zM16 14.891l-2.422 1.109-2.547 1.156c-0.625 0.281-1.031 0.906-1.031 1.594 0 0.969 0.781 1.75 1.75 1.75 0.25 0 0.5-0.047 0.719-0.156l5.281-2.406c-1.016-0.219-1.75-1.141-1.75-2.188v-0.859zM21 19.75c0-0.969-0.781-1.75-1.75-1.75-0.25 0-0.5 0.047-0.719 0.156l-4.531 2.063c-0.938 0.422-1.891 0.797-1.891 1.984 0 1.031 0.719 1.781 1.766 1.781 0.187 0 0.438-0.063 0.594-0.141l5.5-2.5c0.625-0.281 1.031-0.906 1.031-1.594zM17.375 8l-10.156-3.875c-0.234-0.078-0.469-0.125-0.719-0.125-1.094 0-2 0.891-2 2 0 0.828 0.516 1.578 1.281 1.875l8.219 3.125v1h-10c-1.109 0-2 0.891-2 2s0.891 2 2 2h8.359l3.641-1.656v-3.094c0-0.625 0.266-1.234 0.719-1.656l1.734-1.594h-1.078zM16.766 24c0.812 0 1.641-0.094 2.422-0.297l5.297-1.328c0.891-0.219 1.516-1.016 1.516-1.937v-10.437c0-1.109-0.891-2-2-2h-4.813l-2.125 1.969c-0.359 0.328-0.562 0.797-0.562 1.281v4.625c0 0.969 0.797 1.687 1.75 1.687 0.969 0 1.75-0.859 1.75-1.813v-3.25h0.5v3.25c0 0.703-0.344 1.359-0.891 1.781 1.094 0.172 1.891 1.125 1.891 2.219 0 0.875-0.516 1.687-1.313 2.047l-4.844 2.203h1.422z"></path>
</symbol>
<symbol id="icon-hand-paper-o" viewBox="0 0 26 28">
<title>hand-paper-o</title>
<path d="M13.75 2c-0.969 0-1.75 0.781-1.75 1.75v10.25h-0.5v-8.25c0-0.969-0.781-1.75-1.75-1.75s-1.75 0.781-1.75 1.75v12.25l-2.406-3.203c-0.375-0.5-0.969-0.797-1.594-0.797-1.109 0-2 0.906-2 2 0 0.438 0.141 0.859 0.406 1.203l6 8c0.375 0.5 0.969 0.797 1.594 0.797h10.75c0.719 0 1.344-0.516 1.484-1.219l1.188-6.328c0.047-0.297 0.078-0.609 0.078-0.922v-7.781c0-0.969-0.781-1.75-1.75-1.75s-1.75 0.781-1.75 1.75v4.25h-0.5v-8.25c0-0.969-0.781-1.75-1.75-1.75s-1.75 0.781-1.75 1.75v8.25h-0.5v-10.25c0-0.969-0.781-1.75-1.75-1.75zM13.75 0c1.406 0 2.703 0.797 3.344 2.063 0.219-0.047 0.438-0.063 0.656-0.063 2.063 0 3.75 1.687 3.75 3.75v0.266c2.172-0.125 4 1.547 4 3.734v7.781c0 0.438-0.047 0.875-0.125 1.297l-1.188 6.312c-0.297 1.656-1.75 2.859-3.437 2.859h-10.75c-1.25 0-2.453-0.609-3.203-1.594l-6-8c-0.516-0.688-0.797-1.547-0.797-2.406 0-2.203 1.781-4 4-4 0.656 0 1.453 0.156 2 0.531v-6.781c0-2.063 1.687-3.75 3.75-3.75 0.219 0 0.438 0.016 0.656 0.063 0.641-1.266 1.937-2.063 3.344-2.063z"></path>
</symbol>
<symbol id="icon-hand-grab-o" viewBox="0 0 24 28">
<title>hand-grab-o</title>
<path d="M12 6c-1.109 0-2 0.891-2 2v2h-0.5v-1.453c0-0.984-0.75-1.797-1.75-1.797-0.969 0-1.75 0.781-1.75 1.75v6.703l-0.5-0.469v-2.688c0-0.984-0.75-1.797-1.75-1.797-0.969 0-1.75 0.781-1.75 1.75v3.5c0 0.484 0.203 0.938 0.547 1.281l4.844 4.625c0.453 0.453 0.609 0.969 0.609 1.594 0 0.547 0.453 1 1 1h10c0.547 0 1-0.453 1-1v-0.391c0-0.406 0.047-0.812 0.156-1.203l1.687-6.813c0.109-0.391 0.156-0.797 0.156-1.203v-3.844c0-0.984-0.75-1.797-1.75-1.797-0.969 0-1.75 0.781-1.75 1.75v0.5h-0.5v-1.953c0-0.828-0.562-1.594-1.391-1.766-0.109-0.016-0.234-0.031-0.359-0.031-0.969 0-1.75 0.781-1.75 1.75v2h-0.5v-1.906c0-1.047-0.75-1.969-1.797-2.078-0.078-0.016-0.141-0.016-0.203-0.016zM12 4c0.844 0 1.656 0.266 2.328 0.781 0.578-0.344 1.25-0.531 1.922-0.531 1.234 0 2.375 0.594 3.078 1.609 0.297-0.078 0.609-0.109 0.922-0.109 2.094 0 3.75 1.719 3.75 3.797v3.844c0 0.562-0.078 1.141-0.203 1.687l-1.703 6.813c-0.094 0.375-0.094 0.734-0.094 1.109 0 1.656-1.344 3-3 3h-10c-1.781 0-3-1.422-3-3.141l-4.813-4.625c-0.734-0.703-1.188-1.703-1.188-2.734v-3.5c0-2.063 1.687-3.75 3.75-3.75 0.094 0 0.172 0 0.25 0.016 0.125-1.984 1.781-3.516 3.75-3.516 0.531 0 1.047 0.109 1.531 0.328 0.734-0.703 1.703-1.078 2.719-1.078z"></path>
</symbol>
</defs>
</svg>
